# xmcd
#
# Track frame offsets: 
#        150
#        35072
#        52502
#        78565
#        89367
#        94947
#        108562
#        118367
#        131760
#        168360
#
# Disc length: 2416 seconds
#
# Revision: 2
# Processed by: cddbd v1.5.2PL0 Copyright (c) Steve Scherf et al.
# Submitted via: ExactAudioCopy v0.99pb5
#
DISCID=84096e0a
DTITLE=Jimi Hendrix - The Guitar Legend
DYEAR=1900
DGENRE=
TTITLE0=Catfish Blues
TTITLE1=Burning Of The Midnight Lamp
TTITLE2=Purple Haze
TTITLE3=Little Miss Lover
TTITLE4=Wild Thing
TTITLE5=Can You Please Crawl Out Of Your Window
TTITLE6=Sunshine Of Your Love
TTITLE7=Room Ful Of Mirrors
TTITLE8=Drivin' South
TTITLE9=Fire
EXTD=
EXTT0=
EXTT1=
EXTT2=
EXTT3=
EXTT4=
EXTT5=
EXTT6=
EXTT7=
EXTT8=
EXTT9=
PLAYORDER=
